<?xml version="1.0" standalone="no"?>
<!DOCTYPE svg PUBLIC "-//W3C//DTD SVG 20010904//EN"
 "http://www.w3.org/TR/2001/REC-SVG-20010904/DTD/svg10.dtd">
<svg version="1.0" xmlns="http://www.w3.org/2000/svg"
 width="241.000000pt" height="114.000000pt" viewBox="0 0 241.000000 114.000000"
 preserveAspectRatio="xMidYMid meet">

<g transform="translate(0.000000,114.000000) scale(0.100000,-0.100000)"
fill="#000000" stroke="none">
<path d="M1129 808 c-1 -2 -2 -49 -3 -105 l-2 -103 48 0 c26 0 49 4 52 8 3 5
6 46 8 91 3 72 0 84 -16 97 -16 11 -83 20 -87 12z m69 -106 c2 -51 0 -62 -13
-62 -12 0 -15 13 -15 66 0 48 3 65 13 62 7 -3 13 -28 15 -66z"/>
<path d="M1250 705 l0 -105 50 0 c43 0 50 3 50 20 0 16 -7 20 -30 20 -37 0
-41 25 -5 34 33 8 33 36 -1 36 -22 0 -25 4 -22 28 2 19 9 28 26 30 14 2 22 10
22 23 0 16 -7 19 -45 19 l-45 0 0 -105z"/>
<path d="M1364 797 c-3 -8 -4 -54 -2 -103 3 -84 4 -89 26 -92 14 -2 22 2 22
12 0 8 6 28 13 43 l12 27 5 -39 c3 -27 10 -41 23 -43 15 -3 17 7 17 102 0 122
-13 138 -45 54 l-20 -53 -3 53 c-3 44 -6 52 -23 52 -11 0 -22 -6 -25 -13z"/>
<path d="M1501 738 c2 -117 5 -123 72 -125 54 -1 57 0 57 22 0 13 -4 27 -10
30 -5 3 -10 37 -10 76 0 55 -3 69 -15 69 -12 0 -15 -16 -15 -80 0 -64 -3 -80
-15 -80 -12 0 -15 16 -15 80 0 79 0 80 -25 80 -24 0 -25 -2 -24 -72z"/>
<path d="M1640 705 c0 -96 2 -105 19 -105 13 0 25 15 39 48 l20 47 1 -47 c1
-41 4 -48 21 -48 19 0 20 7 20 105 0 98 -1 105 -20 105 -13 0 -20 -7 -20 -20
0 -12 -8 -35 -17 -53 l-18 -32 -3 53 c-3 44 -6 52 -23 52 -18 0 -19 -8 -19
-105z"/>
<path d="M1793 803 c-17 -6 -18 -174 -1 -191 7 -7 29 -12 50 -12 37 0 38 1 38
35 0 24 -5 35 -15 35 -8 0 -15 -7 -15 -15 0 -8 -7 -15 -15 -15 -12 0 -15 13
-15 59 0 58 14 88 26 57 12 -30 34 -18 34 19 0 34 -1 35 -37 34 -21 0 -44 -3
-50 -6z"/>
<path d="M1897 803 c-2 -5 -1 -51 2 -103 6 -93 6 -95 32 -98 l27 -3 -5 93 c-2
51 -6 99 -8 106 -5 13 -41 17 -48 5z"/>
<path d="M1996 797 c-14 -10 -18 -31 -21 -105 -4 -86 -3 -92 15 -92 11 0 20 7
20 15 0 9 9 15 25 15 16 0 25 -6 25 -15 0 -8 7 -15 16 -15 15 0 16 9 10 61 -3
34 -6 82 -6 105 0 43 -1 44 -33 44 -18 0 -41 -6 -51 -13z m52 -79 c-4 -59 -28
-63 -28 -4 0 35 4 46 16 46 12 0 14 -9 12 -42z"/>
<path d="M445 781 c-22 -10 -49 -26 -59 -34 -18 -13 -13 -14 50 -10 79 6 126
-9 202 -65 58 -42 129 -58 190 -42 43 10 138 58 130 65 -2 1 -23 -1 -48 -4
-62 -9 -125 4 -177 37 -100 62 -125 72 -188 72 -37 0 -75 -7 -100 -19z"/>
<path d="M1158 553 c12 -2 32 -2 45 0 12 2 2 4 -23 4 -25 0 -35 -2 -22 -4z"/>
<path d="M174 516 c-28 -13 -54 -28 -57 -32 -3 -5 32 -9 76 -9 74 0 87 -3 130
-30 109 -68 124 -75 164 -81 51 -8 135 16 183 51 l34 25 -34 -6 c-19 -3 -41
-7 -48 -10 -35 -10 -121 19 -186 64 -63 44 -73 47 -140 50 -59 2 -80 -1 -122
-22z"/>
<path d="M1120 507 c0 -20 4 -25 15 -21 13 5 13 9 3 23 -7 9 -14 18 -15 20 -2
2 -3 -8 -3 -22z"/>
</g>
</svg>
